HIERARCHY
ROOT Hips
{
	OFFSET -3.958830 18.904000 13.208200
	CHANNELS 6 Xposition Yposition Zposition Zrotation Yrotation Xrotation 
	JOINT LHipJoint
	{
		OFFSET 0.000000 0.000000 0.000000
		CHANNELS 3 Zrotation Yrotation Xrotation
		JOINT LeftUpLeg
		{
			OFFSET 1.800000 -1.400000 0.085000
			CHANNELS 3 Zrotation Yrotation Xrotation
			JOINT LeftLeg
			{
				OFFSET 2.215000 -6.000000 0.000000
				CHANNELS 3 Zrotation Yrotation Xrotation
				JOINT LeftFoot
				{
					OFFSET 2.500000 -6.900000 0.000000
					CHANNELS 3 Zrotation Yrotation Xrotation
					JOINT LeftToeBase
					{
						OFFSET 0.200000 -0.500000 1.950000
						CHANNELS 3 Zrotation Yrotation Xrotation
						End Site
						{
							OFFSET 0.000000 0.000000 0.000000
						}
					}
				}
			}
		}
	}
	JOINT RHipJoint
	{
		OFFSET 0.000000 0.000000 0.000000
		CHANNELS 3 Zrotation Yrotation Xrotation
		JOINT RightUpLeg
		{
			OFFSET -1.800000 -1.400000 0.085000
			CHANNELS 3 Zrotation Yrotation Xrotation
			JOINT RightLeg
			{
				OFFSET -2.215000 -6.000000 0.000000
				CHANNELS 3 Zrotation Yrotation Xrotation
				JOINT RightFoot
				{
					OFFSET -2.500000 -6.900000 0.000000
					CHANNELS 3 Zrotation Yrotation Xrotation
					JOINT RightToeBase
					{
						OFFSET -0.200000 -0.500000 1.950000
						CHANNELS 3 Zrotation Yrotation Xrotation
						End Site
						{
							OFFSET 0.000000 0.000000 0.000000
						}
					}
				}
			}
		}
	}
	JOINT LowerBack
	{
		OFFSET 0.000000 0.000000 0.000000
		CHANNELS 3 Zrotation Yrotation Xrotation
		JOINT Spine
		{
			OFFSET -0.087000 1.940000 -0.288900
			CHANNELS 3 Zrotation Yrotation Xrotation
			JOINT Spine1
			{
				OFFSET 0.000000 1.950000 0.060000
				CHANNELS 3 Zrotation Yrotation Xrotation
				JOINT Neck
				{
					OFFSET 0.000000 0.000000 0.000000
					CHANNELS 3 Zrotation Yrotation Xrotation
					JOINT Neck1
					{
						OFFSET 0.000000 1.600000 0.340000
						CHANNELS 3 Zrotation Yrotation Xrotation
						JOINT Head
						{
							OFFSET 0.000000 1.667000 -0.240000
							CHANNELS 3 Zrotation Yrotation Xrotation
							End Site
							{
								OFFSET 0.000000 0.000000 0.000000
							}
						}
					}
				}
				JOINT LeftShoulder
				{
					OFFSET 0.000000 0.000000 0.000000
					CHANNELS 3 Zrotation Yrotation Xrotation
					JOINT LeftArm
					{
						OFFSET 2.700000 1.550000 -0.730000
						CHANNELS 3 Zrotation Yrotation Xrotation
						JOINT LeftForeArm
						{
							OFFSET 5.450000 0.000000 0.000000
							CHANNELS 3 Zrotation Yrotation Xrotation
							JOINT LeftHand
							{
								OFFSET 3.450000 0.000000 0.000000
								CHANNELS 3 Zrotation Yrotation Xrotation
								JOINT LeftHandIndex1
								{
									OFFSET 0.750000 0.000000 0.000000
									CHANNELS 3 Zrotation Yrotation Xrotation
									End Site
									{
										OFFSET 0.000000 0.000000 0.000000
									}
								}
							}
						}
					}
				}
				JOINT RightShoulder
				{
					OFFSET 0.000000 0.000000 0.000000
					CHANNELS 3 Zrotation Yrotation Xrotation
					JOINT RightArm
					{
						OFFSET -2.700000 1.550000 -0.730000
						CHANNELS 3 Zrotation Yrotation Xrotation
						JOINT RightForeArm
						{
							OFFSET -5.450000 0.000000 0.000000
							CHANNELS 3 Zrotation Yrotation Xrotation
							JOINT RightHand
							{
								OFFSET -3.450000 0.000000 0.000000
								CHANNELS 3 Zrotation Yrotation Xrotation
								JOINT RightHandIndex1
								{
									OFFSET -0.750000 0.000000 0.000000
									CHANNELS 3 Zrotation Yrotation Xrotation
									End Site
									{
										OFFSET 0.000000 0.000000 0.000000
									}
								}
							}
						}
					}
				}
			}
		}
	}
}
MOTION
Frames: 13
Frame Time: 0.016667
0.692750 16.912170 -1.918040 -1.870366 -2.505180 3.934936 -14.897420 12.956562 2.276359 10.398083 -0.411040 -19.564009 -2.527038 7.597968 25.707315 -0.171754 4.891948 2.832631 0.192250 0.117370 0.033070 18.390111 -11.854925 2.621147 -19.106206 0.926228 -9.591599 10.256270 -6.659073 13.468900 -0.094936 -4.680342 2.762386 0.214080 0.314930 0.092300 -4.111919 0.805217 -6.660090 5.789670 2.526376 4.306910 -0.999743 2.334094 7.451164 2.476894 -1.730855 -6.598166 -2.560469 0.208228 30.326530 -2.293410 -1.623130 -2.277850 -14.858141 0.141654 3.675562 -46.219533 4.552036 -5.022108 -13.359187 -14.627483 0.099864 -3.963539 3.046862 -0.052010 0.267310 -0.225780 0.149210 10.617564 4.677732 0.927186 33.243105 19.430674 -4.883606 -18.757893 66.462726 -10.813164 1.789931 -1.509611 -0.119910 0.159780 0.007430 -0.016220 
0.697950 16.908260 -1.919660 -1.781645 -2.315139 4.125839 -14.898381 12.961332 2.244082 10.166211 -0.390933 -18.875102 -2.602133 7.296209 24.323456 -0.204276 4.695778 2.912931 0.194350 0.121040 0.032730 18.389606 -11.871690 2.625763 -18.786817 0.877122 -9.480235 10.029222 -6.534916 13.149599 -0.092611 -4.647818 2.778549 0.220190 0.319830 0.093290 -4.110792 0.833510 -6.620102 5.536439 2.627561 4.019686 -0.962503 2.418160 7.615452 2.498074 -1.600585 -6.626964 -2.312465 0.130663 30.121168 -2.258300 -1.620600 -2.349050 -14.328790 0.237109 3.665865 -46.060220 4.384482 -4.985836 -13.815021 -15.209985 0.204009 -3.964380 3.056174 -0.054510 0.272440 -0.229060 0.150060 10.077185 4.474350 0.961236 33.205345 19.515482 -4.629103 -18.342868 65.772057 -10.392302 1.790336 -1.522273 -0.122460 0.163150 0.008990 -0.016690 
0.716900 16.904420 -1.925860 -1.702136 -1.763506 4.496905 -14.898532 12.956185 2.195457 9.681031 -0.394733 -17.419827 -2.692431 6.620366 21.276324 -0.266559 4.296282 3.076725 0.197340 0.122860 0.034780 18.393700 -11.874088 2.654930 -18.114999 0.750175 -9.007943 9.670860 -6.239725 12.005195 -0.094290 -4.580061 2.814164 0.226540 0.323450 0.095860 -4.123050 0.857152 -6.572241 5.401162 2.709864 3.545273 -0.887919 2.465293 7.837297 2.486986 -1.470604 -6.650573 -2.094300 -0.147986 29.910282 -2.236120 -1.811170 -2.541940 -13.886791 0.233438 3.687177 -45.503275 4.186644 -4.905390 -14.437210 -16.355180 0.402902 -3.960994 3.072805 -0.054570 0.276760 -0.232740 0.147250 9.688043 4.335524 0.993793 32.840805 19.475815 -4.435657 -18.910019 64.474782 -10.328388 1.786820 -1.517415 -0.125190 0.166860 0.013950 -0.019240 
0.739800 16.908830 -1.939410 -1.543413 -0.928700 4.837485 -14.908905 12.917748 2.194559 9.273694 -0.413754 -15.668174 -3.171047 5.983166 17.554038 -0.312472 3.937578 3.230768 0.194580 0.114000 0.037460 18.393120 -11.834303 2.687701 -17.476795 0.613134 -8.407028 9.472098 -5.977023 10.711646 -0.104180 -4.528633 2.843883 0.223400 0.318620 0.095090 -4.119066 0.842563 -6.573310 5.271670 2.702098 3.179385 -1.003401 2.462650 8.066953 2.558772 -1.343621 -6.780097 -1.953181 -0.531501 30.234564 -2.314430 -2.093230 -2.551450 -13.841544 -0.171319 3.825195 -44.243497 4.103936 -4.780748 -15.279052 -17.795559 0.697800 -3.941799 3.093833 -0.046010 0.272450 -0.231990 0.141520 9.530207 4.593295 1.135752 31.871179 19.245407 -4.312209 -18.868727 62.640739 -9.769567 1.799223 -1.513844 -0.129200 0.167200 0.019180 -0.024810 
0.759280 16.916110 -1.961040 -1.263519 0.022051 5.213730 -14.937619 12.858165 2.247202 8.869724 -0.480512 -14.024292 -3.597655 5.348180 13.678135 -0.343639 3.663095 3.354769 0.197900 0.110470 0.046900 18.382754 -11.769028 2.691325 -16.743647 0.482103 -7.968678 8.877885 -5.624631 9.459952 -0.110052 -4.433493 2.886803 0.222940 0.310440 0.093290 -4.076196 0.790305 -6.594063 4.801326 2.674399 2.931963 -0.985687 2.450684 8.238961 2.594521 -1.157605 -6.850960 -1.735810 -0.955799 30.666389 -2.254660 -2.454290 -2.722850 -13.951559 -0.574376 3.935189 -42.673259 4.008415 -4.639419 -16.525119 -19.722496 1.146559 -3.914455 3.121011 -0.033430 0.263500 -0.227510 0.135550 9.620308 4.842019 1.193917 30.701758 19.108761 -4.115431 -18.608799 60.208242 -8.973515 1.820816 -1.507976 -0.132440 0.170060 0.021570 -0.031260 
0.780850 16.918330 -1.986130 -1.059206 1.058350 5.533267 -14.958328 12.770691 2.331884 8.732951 -0.561198 -12.743231 -4.088624 4.876645 10.350515 -0.352437 3.528991 3.422468 0.202530 0.112380 0.057180 18.381839 -11.714084 2.673087 -16.134659 0.387154 -7.786934 8.200826 -5.330642 8.626464 -0.112809 -4.346421 2.920955 0.225710 0.300680 0.094010 -4.059714 0.787924 -6.633664 4.631711 2.660419 2.807768 -1.245761 2.475064 8.445910 2.731622 -0.776399 -6.932073 -1.176112 -1.554974 30.999795 -2.400280 -2.784820 -2.820600 -14.214425 -1.169854 4.036140 -40.450977 3.813006 -4.390832 -18.603643 -22.035436 1.861961 -3.886342 3.164086 -0.026520 0.258270 -0.221520 0.130950 9.637091 5.089446 1.292932 29.604362 19.012084 -3.823651 -18.127770 57.226269 -8.056757 1.848167 -1.509708 -0.132890 0.169610 0.020690 -0.036440 
0.798270 16.914490 -2.012710 -1.007401 1.945672 5.789173 -14.963681 12.701540 2.405872 8.688217 -0.669822 -12.231114 -4.297889 4.560536 8.324682 -0.364945 3.459090 3.455287 0.221150 0.131130 0.077500 18.386711 -11.696149 2.648181 -15.767927 0.354753 -7.980908 7.853860 -5.210237 8.536201 -0.114065 -4.284591 2.940201 0.239490 0.287010 0.093370 -4.072353 0.825593 -6.672221 4.739391 2.638594 2.955773 -1.713496 2.518262 8.566960 2.893151 -0.306688 -6.951575 -0.412843 -2.170585 30.936467 -2.494160 -3.056580 -3.262400 -14.620904 -1.764656 4.072094 -37.971533 3.643850 -4.123189 -20.994907 -24.331206 2.729856 -3.858443 3.209544 -0.018250 0.252020 -0.212500 0.129940 9.709991 5.250470 1.343369 28.898969 19.111281 -3.446834 -17.492208 54.079219 -7.180133 1.873027 -1.513148 -0.132120 0.172750 0.012140 -0.043910 
0.811730 16.907440 -2.036290 -0.994117 2.567487 5.938581 -14.958145 12.677446 2.455387 8.577245 -0.786265 -12.360154 -4.277822 4.394190 7.584984 -0.385100 3.406699 3.474111 0.233200 0.145810 0.092590 18.388923 -11.726975 2.613334 -15.633501 0.379425 -8.551658 7.735014 -5.251858 9.273860 -0.104637 -4.244705 2.943846 0.252380 0.279790 0.093200 -4.094569 0.882015 -6.694828 4.956158 2.674733 3.308894 -2.274693 2.639438 8.583873 3.091101 0.227690 -6.951229 0.490487 -2.703419 30.714909 -2.661080 -3.162340 -3.557560 -15.288300 -2.461636 4.066560 -35.566907 3.324612 -3.816093 -22.891133 -26.276049 3.550714 -3.845413 3.246124 -0.014970 0.252380 -0.207550 0.128110 9.949146 5.472373 1.394946 28.480295 19.356971 -2.987415 -16.784344 50.341197 -6.322271 1.904438 -1.513608 -0.133880 0.176620 0.006970 -0.050270 
0.814440 16.900770 -2.059380 -0.987349 2.976294 5.906601 -14.954084 12.705389 2.471356 8.389456 -0.891348 -12.970975 -4.022557 4.359091 8.044701 -0.413588 3.354050 3.481422 0.245490 0.159640 0.108020 18.379594 -11.778956 2.588608 -15.643574 0.431024 -9.211010 7.861250 -5.412737 10.402222 -0.097405 -4.231170 2.936194 0.262140 0.268010 0.094780 -4.096230 0.907152 -6.709914 5.053545 2.743759 3.847198 -2.734582 2.800225 8.673649 3.326611 0.838977 -7.039424 1.492857 -3.247048 30.803156 -2.772390 -3.291830 -3.899280 -15.954199 -3.440254 4.082766 -33.793318 2.503584 -3.473034 -23.678681 -27.604742 4.083342 -3.839826 3.259029 -0.005750 0.249430 -0.197620 0.124740 10.136596 5.944160 1.548423 28.345349 19.782645 -2.430996 -15.645581 46.403886 -5.410741 1.940498 -1.505159 -0.133350 0.178950 0.002890 -0.057940 
0.805130 16.900300 -2.084360 -0.991686 3.158124 5.591811 -14.951389 12.788053 2.469573 8.180192 -0.959833 -13.706158 -3.521614 4.396357 9.283701 -0.420123 3.292539 3.480461 0.261160 0.178890 0.124930 18.357587 -11.837166 2.579974 -15.825132 0.509017 -9.917695 8.319446 -5.720869 11.944464 -0.104119 -4.249836 2.909123 0.260600 0.235370 0.096510 -4.076037 0.867759 -6.747969 5.149841 2.797907 4.660598 -3.117131 2.982206 8.851951 3.516786 1.264335 -7.327082 2.075846 -3.774751 31.689274 -2.734240 -3.582350 -4.228140 -16.669222 -4.861606 4.243705 -32.835243 1.294272 -3.209045 -23.517080 -28.492127 4.324450 -3.814673 3.261531 0.010170 0.225380 -0.169900 0.122070 10.460388 7.054104 1.916742 28.195873 20.198491 -1.935171 -14.260157 42.250465 -4.510734 1.998904 -1.485914 -0.116690 0.168490 -0.009780 -0.059820 
0.792270 16.904160 -2.107520 -0.984071 3.009209 5.162669 -14.942945 12.897482 2.467402 7.892557 -1.004276 -14.227336 -2.790307 4.401277 10.589526 -0.417536 3.242411 3.480719 0.255610 0.169510 0.124970 18.336940 -11.890213 2.584610 -15.994130 0.599271 -10.595181 8.666369 -6.010911 13.413409 -0.105968 -4.265645 2.891069 0.239100 0.211560 0.091620 -4.061651 0.782081 -6.812288 5.424750 2.717464 5.517925 -3.569013 3.071254 9.189410 3.637770 1.372066 -7.885807 2.063742 -3.885487 33.316435 -2.445920 -3.811320 -4.097550 -17.067162 -6.680612 4.683555 -33.008455 0.083697 -3.094584 -22.938233 -29.158543 4.352228 -3.788709 3.242572 0.032980 0.198830 -0.149220 0.116470 10.588227 8.818187 2.489316 28.229854 20.960249 -1.241521 -12.507972 37.810305 -3.577831 2.067918 -1.446646 -0.107800 0.160820 -0.010720 -0.060910 
0.775180 16.905170 -2.132640 -0.993278 2.649067 4.859944 -14.933647 12.972463 2.454048 7.689363 -1.065805 -14.843937 -2.155618 4.454290 12.120029 -0.429347 3.240100 3.462186 0.254820 0.162490 0.137950 18.324893 -11.928639 2.605620 -16.142586 0.735412 -11.467722 9.217777 -6.333626 14.786313 -0.107446 -4.303825 2.861068 0.228140 0.190230 0.089520 -4.056028 0.751771 -6.858403 5.663989 2.625083 6.182215 -3.946972 3.109855 9.607073 3.902524 1.636600 -8.348367 2.418606 -4.114074 34.684480 -2.614200 -3.899170 -4.075410 -17.256892 -8.293905 5.032301 -34.167129 -1.550504 -2.968179 -22.049489 -29.970905 4.291697 -3.780548 3.211387 0.053780 0.183160 -0.133550 0.105120 10.264475 10.283911 2.928508 29.076519 22.341207 -0.024444 -10.647860 33.467424 -2.792486 2.129514 -1.407448 -0.105820 0.157710 -0.009050 -0.070780 
0.757080 16.906500 -2.159770 -1.102942 2.057710 4.642384 -14.918139 13.019001 2.446611 7.639465 -1.128629 -15.383888 -1.694780 4.495716 13.298013 -0.435752 3.252352 3.440457 0.251440 0.154220 0.140270 18.325124 -11.934056 2.645229 -16.306671 0.910349 -12.400208 10.065544 -6.717951 16.049716 -0.112835 -4.374391 2.817558 0.218830 0.175800 0.084800 -4.072160 0.718857 -6.915940 6.171472 2.478032 6.718924 -4.206353 3.076095 10.080151 4.112278 1.707092 -8.789628 2.439118 -4.175560 36.221506 -2.475180 -4.119770 -3.905020 -17.219361 -9.856388 5.387276 -36.352020 -3.566344 -2.790929 -21.115040 -30.968063 4.194190 -3.771559 3.184248 0.070620 0.167310 -0.123950 0.096640 9.821395 11.819349 3.313283 29.978914 23.872842 1.390829 -8.501334 29.549051 -2.043820 2.193036 -1.367926 -0.105450 0.156220 -0.004140 -0.075620 
